<?xml version="1.0" standalone="no"?><!DOCTYPE svg PUBLIC "-//W3C//DTD SVG 1.1//EN" "http://www.w3.org/Graphics/SVG/1.1/DTD/svg11.dtd"><svg t="1619259820375" class="icon" viewBox="0 0 1024 1024" version="1.1" xmlns="http://www.w3.org/2000/svg" p-id="2176" xmlns:xlink="http://www.w3.org/1999/xlink" width="200" height="200"><defs><style type="text/css"></style></defs><path d="M802.5 97h-581C153 97 97 153 97 221.5v581C97 871 153 927 221.5 927h581C871 927 927 871 927 802.5v-581C927 153 871 97 802.5 97z m83 705.5c0 45.8-37.2 83-83 83h-581c-45.8 0-83-37.2-83-83v-581c0-45.8 37.2-83 83-83h581c45.8 0 83 37.2 83 83v581z" p-id="2177"></path><path d="M633.7 480.9c-8-13.8-28-13.8-35.9 0L466 665.4l-81.4-101.8c-8.1-13.4-27.5-13.4-35.6 0L183 771.1c-5.9 9.8-2.7 22.6 7.1 28.5 9.8 5.9 22.6 2.7 28.5-7.1l148.2-177.9 73 87.6-49.5 69.2c-5.7 9.9-2.3 22.6 7.6 28.3 9.9 5.7 22.6 2.3 28.3-7.6l189.5-259.4 189.5 259.4c3.9 6.7 10.8 10.4 18 10.4 3.5 0 7.1-0.9 10.4-2.8 9.9-5.7 13.3-18.4 7.6-28.3L633.7 480.9zM283.7 387.5c34.2 0 62.3-28 62.3-62.2s-28-62.2-62.2-62.2-62.2 28-62.2 62.2c-0.1 34.2 27.9 62.2 62.1 62.2z" p-id="2178"></path></svg>