<?xml version="1.0" standalone="no"?><!DOCTYPE svg PUBLIC "-//W3C//DTD SVG 1.1//EN" "http://www.w3.org/Graphics/SVG/1.1/DTD/svg11.dtd"><svg t="1619316340919" class="icon" viewBox="0 0 1024 1024" version="1.1" xmlns="http://www.w3.org/2000/svg" p-id="2459" xmlns:xlink="http://www.w3.org/1999/xlink" width="200" height="200"><defs><style type="text/css"></style></defs><path d="M299.794951 1023.967574a53.189427 53.189427 0 0 1-17.634997-2.844354 56.887087 56.887087 0 0 1-37.261042-45.794105c-11.661853-89.312727-23.323706-112.351998-26.168061-116.61853A462.207586 462.207586 0 0 1 0 471.878391C0 211.619965 229.823833 0 511.983787 0s511.983787 211.619965 511.983787 471.878391-229.823833 471.878391-511.983787 471.87839a572.568535 572.568535 0 0 1-85.330631-5.119838c-4.835402 0-28.443544 11.092982-88.459421 70.824424a53.189427 53.189427 0 0 1-38.398784 14.506207zM511.983787 56.887087C261.111731 56.887087 56.887087 242.907863 56.887087 471.878391a406.45824 406.45824 0 0 0 194.55384 341.322524c11.092982 7.110886 31.856769 20.194916 49.491766 152.74183 81.0641-79.641922 111.783127-87.606115 131.978043-85.330631a523.076769 523.076769 0 0 0 79.073051 6.25758c250.872056 0 455.0967-186.305211 455.0967-414.991303S762.855843 56.887087 511.983787 56.887087z" fill="#424242" p-id="2460"></path><path d="M284.435437 471.025084m-56.887087 0a56.887087 56.887087 0 1 0 113.774175 0 56.887087 56.887087 0 1 0-113.774175 0Z" fill="#FFC107" p-id="2461"></path><path d="M511.983787 471.025084m-56.887087 0a56.887087 56.887087 0 1 0 113.774175 0 56.887087 56.887087 0 1 0-113.774175 0Z" fill="#FFC107" p-id="2462"></path><path d="M739.532137 471.025084m-56.887087 0a56.887087 56.887087 0 1 0 113.774175 0 56.887087 56.887087 0 1 0-113.774175 0Z" fill="#FFC107" p-id="2463"></path></svg>