<?xml version="1.0" standalone="no"?><!DOCTYPE svg PUBLIC "-//W3C//DTD SVG 1.1//EN" "http://www.w3.org/Graphics/SVG/1.1/DTD/svg11.dtd"><svg t="1619316309557" class="icon" viewBox="0 0 1024 1024" version="1.1" xmlns="http://www.w3.org/2000/svg" p-id="1642" xmlns:xlink="http://www.w3.org/1999/xlink" width="200" height="200"><defs><style type="text/css"></style></defs><path d="M702.6 594.9c76.6-60.4 125.8-153.5 125.8-258.1C828.4 154.9 679.5 7.4 496 7.4c-183.6 0-332.4 147.5-332.4 329.4 0 99.5 44.5 188.6 114.8 249C165.5 664 96.1 801.2 96.1 948.7c0 13 10.5 23.5 23.5 23.5 13 0 23.5-10.5 23.5-23.5 0-137.9 67.1-265.4 175.2-332.8 0.1-0.1 0.2-0.2 0.4-0.2 51.3 32.1 112 50.7 177.2 50.7 60 0 116.3-15.8 164.9-43.3 25.2 17.1 48.3 37.8 68.9 61.6 4.7 5.4 11.2 8.1 17.8 8.1 5.5 0 10.9-1.9 15.4-5.7 9.8-8.5 10.9-23.4 2.4-33.2C746.3 631.7 725.3 612 702.6 594.9zM210.6 336.9c0-155.7 128-282.4 285.3-282.4s285.3 126.7 285.3 282.4S653.3 619.2 496 619.2 210.6 492.6 210.6 336.9z" p-id="1643"></path><path d="M496 519.7c-74.1 0-134.4-51.2-134.4-114 0-13 10.5-23.5 23.5-23.5s23.5 10.5 23.5 23.5c0 36.9 39.2 67 87.3 67s87.3-30 87.3-67c0-13 10.5-23.5 23.5-23.5s23.5 10.5 23.5 23.5C630.3 468.5 570.1 519.7 496 519.7z" p-id="1644"></path><path d="M943.1 831 825.4 831 825.4 713.4 778.3 713.4 778.3 831 660.7 831 660.7 878.1 778.3 878.1 778.3 995.8 825.4 995.8 825.4 878.1 943.1 878.1Z" p-id="1645"></path></svg>