<?xml version="1.0" standalone="no"?><!DOCTYPE svg PUBLIC "-//W3C//DTD SVG 1.1//EN" "http://www.w3.org/Graphics/SVG/1.1/DTD/svg11.dtd"><svg t="1619656293724" class="icon" viewBox="0 0 1024 1024" version="1.1" xmlns="http://www.w3.org/2000/svg" p-id="2095" xmlns:xlink="http://www.w3.org/1999/xlink" width="200" height="200"><defs><style type="text/css"></style></defs><path d="M982.823578 444.884792a508.58284 508.58284 0 0 0-135.475198-296.7234C757.343172 52.280473 638.159718 0 511.698394 0S266.053617 52.280473 176.048409 148.161392A508.58284 508.58284 0 0 0 40.573211 444.884792 86.800275 86.800275 0 0 0 37.635356 466.985478v92.342138A88.936897 88.936897 0 0 0 120.496233 648.998977a87.33443 87.33443 0 0 0 91.607675-86.800275V469.589486A88.936897 88.936897 0 0 0 131.112575 379.984895a86.800275 86.800275 0 0 0-40.061665 6.676944C138.724291 187.688902 309.253446 40.061665 511.698394 40.061665s372.974103 147.627236 420.647485 346.600174a86.800275 86.800275 0 0 0-40.061665-6.676944 88.870127 88.870127 0 0 0-80.857794 89.537822v79.522405c0 52.547551 29.245016 90.539363 70.975917 98.484927a86.266119 86.266119 0 0 0 43.600445-2.871086c-45.603529 160.246661-166.122372 276.291951-320.493321 302.332034a51.612779 51.612779 0 0 1 4.273244 40.061665c181.94673-29.378555 321.428094-170.863002 363.292534-363.82669a331.51028 331.51028 0 0 1 8.680028-34.119185 85.865502 85.865502 0 0 0 4.406783-27.041624V466.985478a86.800275 86.800275 0 0 0-3.338472-22.100686z m-857.987331-25.03854a47.205996 47.205996 0 0 1 47.139226 47.139226v94.879377a47.172611 47.172611 0 0 1-94.345221 0v-62.22912q0-23.769921 2.270161-46.73861a47.205996 47.205996 0 0 1 44.935834-33.050873zM939.022824 586.43601a47.139226 47.139226 0 0 1-87.4012-24.504386V466.985478a47.139226 47.139226 0 0 1 91.807983-14.088353q2.203392 23.168996 2.270161 46.73861a545.506342 545.506342 0 0 1-6.676944 86.800275z" fill="#78C5FF" p-id="2096"></path><path d="M605.175613 946.990997a51.612779 51.612779 0 1 0 6.676945 25.03854 51.746318 51.746318 0 0 0-6.676945-25.03854z" fill="#0088FF" p-id="2097"></path></svg>