<?xml version="1.0" standalone="no"?><!DOCTYPE svg PUBLIC "-//W3C//DTD SVG 1.1//EN" "http://www.w3.org/Graphics/SVG/1.1/DTD/svg11.dtd"><svg t="1618035431396" class="icon" viewBox="0 0 1024 1024" version="1.1" xmlns="http://www.w3.org/2000/svg" p-id="5980" xmlns:xlink="http://www.w3.org/1999/xlink" width="200" height="200"><defs><style type="text/css"></style></defs><path d="M790.18 780.15H313.82c-54.45 0-96.43-47.97-89.2-101.94l34.49-257.64C280.69 259.35 405.28 140 552 140s271.31 119.35 292.9 280.57l34.49 257.64c7.22 53.97-34.75 101.94-89.21 101.94zM679.69 792.45C667.82 844.86 620.96 884 564.95 884h-0.23c-57.46 0-105.3-41.19-115.59-95.66" fill="#99D1FF" p-id="5981"></path><path d="M504.95 904h-0.23c-66.1 0-122.98-47.08-135.24-111.94-2.05-10.85 5.08-21.31 15.94-23.37 10.85-2.05 21.32 5.08 23.37 15.94 8.69 45.99 49.04 79.37 95.94 79.37h0.23c22.6 0 43.81-7.49 61.34-21.67 17.05-13.79 29.08-33.07 33.89-54.3 2.44-10.77 13.15-17.53 23.92-15.09 10.77 2.44 17.53 13.15 15.09 23.92-6.78 29.96-23.74 57.15-47.75 76.57-24.37 19.71-55.09 30.57-86.5 30.57z" fill="#0072F0" p-id="5982"></path><path d="M845.87 800.15H163.8c-5.77 0-11.25-2.49-15.05-6.83a19.97 19.97 0 0 1-4.77-15.82l48.14-359.58c11.04-82.45 48.51-157.93 105.51-212.53C355.11 150.32 428.7 120 504.84 120c76.14 0 149.73 30.32 207.21 85.39 57 54.6 94.47 130.08 105.51 212.53L865.7 777.5a19.96 19.96 0 0 1-4.77 15.82c-3.8 4.34-9.29 6.83-15.06 6.83z m-659.21-40h636.36l-45.11-336.93c-9.84-73.49-43.06-140.6-93.54-188.95-50-47.89-113.76-74.27-179.54-74.27-65.78 0-129.54 26.38-179.54 74.27-50.48 48.35-83.7 115.46-93.54 188.95l-45.09 336.93z" fill="#0072F0" p-id="5983"></path><path d="M665.84 392.22h-0.32c-11.04-0.17-19.86-9.27-19.68-20.31 0.48-30.51-9-58.3-28.18-82.61-14.8-18.75-30.13-28.37-30.28-28.47-9.44-5.73-12.41-18.01-6.67-27.45 5.73-9.44 18.07-12.42 27.51-6.69 3.23 1.96 79.14 49.19 77.62 145.85-0.18 10.94-9.1 19.68-20 19.68z" fill="#0072F0" p-id="5984"></path></svg>